<svg id="Layer_2" data-name="Layer 2" xmlns="http://www.w3.org/2000/svg" viewBox="0 0 478.26 106.01"><defs><style>.cls-1{fill:#fff;}</style></defs><path class="cls-1" d="M167.8,80.33a27.11,27.11,0,0,0,2.84-10.89c0-8-5.66-12.61-17.3-14.12l-4.21-.56c-.78-.14-1.48-.28-2.2-.44a6,6,0,0,1-1.77-.61A4,4,0,0,1,142.94,50a4.64,4.64,0,0,1,.59-2.31l.06-.09a6.87,6.87,0,0,1,3.17-2.44,15.65,15.65,0,0,1,5.77-.82l2.83-.09h3.76l1.25.1,5.91.28,2.81.25,2.38-15.39L169,29.36c-.91-.1-1.58-.12-2.43-.15s-1.88-.06-3.33-.18l-.52,0c-1.72-.13-3-.23-5.86-.23-10,0-17.91,1.38-23.46,4.12a21.81,21.81,0,0,0-11.26,12,24,24,0,0,0-1.5,4.72,25.38,25.38,0,0,0-.35,4.46,13.53,13.53,0,0,0,3.56,9.69c2.42,2.58,5.68,4.06,10,4.52l7.42.84,2.09.33,1.41.41a3.9,3.9,0,0,1,2.69,3.89,4.79,4.79,0,0,1-.84,2.68c-.92,1.29-2.5,2.12-4.89,2.58a65.49,65.49,0,0,1-10.85.59l-2.58-.1-4.2-.34-6.58-1L116,78,115.18,94l.95.15,2.85.37a119.91,119.91,0,0,0,13.77,1.1c10.53,0,18.54-1.22,23.79-3.62A21.92,21.92,0,0,0,167.8,80.33Z"/><path class="cls-1" d="M60.39,80.93C41.89,72.66,38,71.31,30.64,66.7c-10.1-6.36-24.13-23.32-7.46-46.37C38-.11,65.55,3.21,77.07,5.7A53.13,53.13,0,0,0,0,53.14C0,80.65,20.77,105.4,47.69,106,66.72,106.43,74.74,87.34,60.39,80.93Z"/><path class="cls-1" d="M63.24,53.89C88.52,60.49,98,72,100.89,76.47a53.08,53.08,0,0,0,4-35.33C100.2,38.22,84.1,29,67.51,28.67,47.79,28.26,31.31,45.55,63.24,53.89Z"/><path class="cls-1" d="M342.21,46.71H359l-14.91-.06C343.37,46.65,342.77,46.67,342.21,46.71Z"/><path class="cls-1" d="M315.19,49.73c0,.18-.09.38-.12.55a24.43,24.43,0,0,0-.34,4.38,13.25,13.25,0,0,0,3.5,9.52c2.37,2.54,5.58,4,9.8,4.45l9.34,1.15,1.29.36A3.89,3.89,0,0,1,341.4,74a4.68,4.68,0,0,1-.83,2.64c-.9,1.27-2.46,2.08-4.8,2.53a64.62,64.62,0,0,1-10.66.58l-2.54-.09-4-.33-6.62-1-1.51-.13-.76,15.67,3.74.5a117.68,117.68,0,0,0,13.54,1.09c10.34,0,18.21-1.2,23.38-3.57a21.46,21.46,0,0,0,11.05-11.41,26.5,26.5,0,0,0,2.8-10.71c0-7.85-5.56-12.39-17-13.87L343,55.36c-.77-.14-1.46-.28-2.16-.44a5.91,5.91,0,0,1-1.73-.59,3.2,3.2,0,0,1-2-3.19,3.74,3.74,0,0,1,.2-1.41Z"/><polygon class="cls-1" points="278.12 95.54 303.23 95.54 311.22 49.73 286.11 49.73 278.12 95.54"/><path class="cls-1" d="M466.5,29.48H437.27L402.38,95.81h25.47l4.77-10.44h19.15l1,10.44h25.48ZM439.77,67.4l7.33-15.66.46-1.38a18.68,18.68,0,0,0,.82-2.47c.18-.74.43-1.65.73-2.75v6.6l2.11,15.66Z"/><polygon class="cls-1" points="286.65 46.65 311.76 46.65 314.75 29.48 289.64 29.48 286.65 46.65"/><polygon class="cls-1" points="231.19 95.68 275.19 95.68 278.67 75.7 259.78 75.7 267.84 29.48 242.74 29.48 231.19 95.68"/><path class="cls-1" d="M207.94,70.18c-.56,3.29-1.44,5.68-2.65,7.19A8.15,8.15,0,0,1,200,80.2a14.64,14.64,0,0,1-2.5.21,5.36,5.36,0,0,1-4.57-1.83q-1.45-1.87-1.5-6.25l.25-2,6.4-40.82h-24l-6.27,39a32.63,32.63,0,0,0-.55,6.44q.1,10.29,7,15.89t20.24,5.45a78.78,78.78,0,0,0,8.75-.63q12.75-1.58,20.26-8.77t9.44-19.11l6.27-38.34H214.73Z"/><path class="cls-1" d="M358.6,29.51l-.92,0H347.11c-7.68.32-14.23,1.78-19.5,4.38a21.41,21.41,0,0,0-11.07,11.77c-.15.38-.29.73-.42,1.08h26.09c.56,0,1.16-.06,1.84-.06l14.91.06h23.23l-8.06,49.5h25l8.15-49.5h17.78l3.48-17.21Z"/></svg>